<svg width="900" height="1150" viewBox="0 0 900 1150" xmlns="http://www.w3.org/2000/svg">
  <defs>
    <linearGradient id="g" x1="0" y1="0" x2="1" y2="1"><stop offset="0%" stop-color="#F7EFE0"/><stop offset="50%" stop-color="#EDC2B4"/><stop offset="100%" stop-color="#D9A48C"/></linearGradient>
    
    <pattern id="p" width="90" height="90" patternUnits="userSpaceOnUse">
      <g fill="none" stroke="#4C3826" stroke-opacity="0.10" stroke-width="1.2">
        <path d="M45 6 L57 24 L79 24 L61 37 L68 60 L45 45 L22 60 L29 37 L11 24 L33 24 Z"/>
        <circle cx="45" cy="45" r="16"/>
        <circle cx="45" cy="45" r="30"/>
      </g>
    </pattern>
    
    <radialGradient id="v" cx="50%" cy="45%" r="75%">
      <stop offset="55%" stop-color="#000000" stop-opacity="0"/>
      <stop offset="100%" stop-color="#2A1E13" stop-opacity="0.28"/>
    </radialGradient>
  </defs>
  <rect width="900" height="1150" fill="url(#g)"/>
  <rect width="900" height="1150" fill="url(#p)"/>
  <g transform="translate(450, 575)" stroke="#4C3826" fill="none" stroke-width="3.2" stroke-linecap="round" stroke-linejoin="round" opacity="0.55">
    
    <path d="M-55 40 L-55 -30 Q0 -55 55 -30 L55 40 Q0 20 -55 40 Z"/>
    <line x1="0" y1="-45" x2="0" y2="32"/>
    <path d="M-10 -75 A 26 26 0 1 0 16 -95 A 20 20 0 1 1 -10 -75 Z" fill="#4C3826" stroke="none" opacity="0.7"/>
  </g>
  <rect width="900" height="1150" fill="url(#v)"/>
</svg>